# xmcd
#
# Track frame offsets: 
#        300
#        22172
#        45017
#        62199
#        79230
#        94287
#        116588
#        132781
#        152158
#        174326
#
# Disc length: 2857 seconds
#
# Revision: 1
# Processed by: cddbd v1.5.2PL0 Copyright (c) Steve Scherf et al.
# Submitted via: ExactAudioCopy v1.0b1
#
DISCID=7d0b250a
DTITLE=Aynsley Lister - All Or Nothing
DYEAR=2006
DGENRE=British Blues Rock
TTITLE0=Say Goodbye
TTITLE1=Hero
TTITLE2=Nothin' At All
TTITLE3=What U Got 4 Me
TTITLE4=Rainy Day
TTITLE5=Balls Of Steel
TTITLE6=Without Wings
TTITLE7=Comin' Home 2 U
TTITLE8=Sometimes It Gets 2 Me
TTITLE9=Crosstown Traffic
EXTD=Released by Ruf Records Gmbh\nLudwig Wagner Str. 31a\nD-37318 Lin
EXTD=dewerra - Germany\nwww.rufrecords.de
EXTT0=
EXTT1=
EXTT2=
EXTT3=
EXTT4=
EXTT5=
EXTT6=
EXTT7=
EXTT8=
EXTT9=
PLAYORDER=
